# xmcd CD database file
#
# Track frame offsets:
#	150
#	12789
#	36203
#	50855
#	62832
#	74037
#	86167
#	99413
#	114717
#	128419
#	140040
#	159618
#	172044
#	183465
#	197506
#
# Disc length: 2822 seconds
#
# Revision: 0
# Processed by: cddbd v1.5.1PL0 Copyright (c) Steve Scherf et al.
# Submitted via: CDex 1.50
#
DISCID=dd0b040f
DTITLE=Various Artist - Total Jazz-CD 4
DYEAR=2000
DGENRE=Jazz
TTITLE0=Solo Flight
TTITLE1=Stardust
TTITLE2=Do You Wanna Jump Children
TTITLE3=Yardbird Suite
TTITLE4=Havin' Myself a Time
TTITLE5=Just Gone
TTITLE6=Djangology
TTITLE7=Toby
TTITLE8=Diminuendo and Cresendo in Blue
TTITLE9=The Minor Drag
TTITLE10=The Flat Foot Floogle
TTITLE11=Round Baout Midnight
TTITLE12=The Good Hearth
TTITLE13=Blowing the Blues Away
TTITLE14=In the Mood
EXTD=YEAR: 2000
EXTT0=
EXTT1=
EXTT2=
EXTT3=
EXTT4=
EXTT5=
EXTT6=
EXTT7=
EXTT8=
EXTT9=
EXTT10=
EXTT11=
EXTT12=
EXTT13=
EXTT14=
PLAYORDER=
